# xmcd
#
# Track frame offsets:
#	150
#	29627
#	56941
#	79839
#	105444
#	137303
#	160083
#	190862
#	216050
#	242664
#	274378
#
# Disc length: 3906 seconds
#
# Revision: 0
# Processed by: cddbd v1.5PL3 Copyright (c) Steve Scherf et al.
# Submitted via: dBpowerAMP V4.0
#
DISCID=970f400b
DTITLE=Groove Armada - Goodbye County, Hello Nightclub
DYEAR=1900
DGENRE=Jazz
TTITLE0=Suntoucher
TTITLE1=Superstylin'
TTITLE2=Drifted
TTITLE3=Little By Little
TTITLE4=Fogma
TTITLE5=My Friend
TTITLE6=Lazy Moon
TTITLE7=Raisin' The Stakes
TTITLE8=Healing
TTITLE9=Edge Hill
TTITLE10=Join Hands
EXTD=
EXTT0=
EXTT1=
EXTT2=
EXTT3=
EXTT4=
EXTT5=
EXTT6=
EXTT7=
EXTT8=
EXTT9=
EXTT10=
PLAYORDER=
